<mxfile host="app.diagrams.net" modified="2020-05-08T03:13:46.875Z" agent="5.0 (Windows NT 10.0; Win64; x64) AppleWebKit/537.36 (KHTML, like Gecko) Chrome/80.0.3987.163 Safari/537.36" etag="Zn1vJaVjRBfUh_EfUlNF" version="13.0.9" type="github">
  <diagram id="LrCX4QGs4A1fx9F8kj6f" name="第 1 页">
    <mxGraphModel dx="1038" dy="583" grid="1" gridSize="10" guides="1" tooltips="1" connect="1" arrows="1" fold="1" page="1" pageScale="1" pageWidth="1920" pageHeight="1200" math="0" shadow="0">
      <root>
        <mxCell id="0" />
        <mxCell id="1" parent="0" />
        <mxCell id="PNHmKyHeMrR1ZzUnfUYw-1" value="&lt;font style=&quot;font-size: 20px&quot;&gt;Rtc-esbridge&lt;/font&gt;" style="shape=process;whiteSpace=wrap;html=1;backgroundOutline=1;" parent="1" vertex="1">
          <mxGeometry x="390" y="350" width="210" height="60" as="geometry" />
        </mxCell>
        <mxCell id="PNHmKyHeMrR1ZzUnfUYw-2" value="" style="endArrow=classic;html=1;exitX=0.5;exitY=1;exitDx=0;exitDy=0;" parent="1" source="PNHmKyHeMrR1ZzUnfUYw-1" target="PNHmKyHeMrR1ZzUnfUYw-6" edge="1">
          <mxGeometry width="50" height="50" relative="1" as="geometry">
            <mxPoint x="670" y="670" as="sourcePoint" />
            <mxPoint x="720" y="620" as="targetPoint" />
          </mxGeometry>
        </mxCell>
        <mxCell id="PNHmKyHeMrR1ZzUnfUYw-3" value="&lt;font style=&quot;font-size: 18px&quot;&gt;Write&lt;/font&gt;" style="text;html=1;strokeColor=#d6b656;fillColor=#fff2cc;align=center;verticalAlign=middle;whiteSpace=wrap;rounded=0;" parent="1" vertex="1">
          <mxGeometry x="400" y="440" width="80" height="40" as="geometry" />
        </mxCell>
        <mxCell id="PNHmKyHeMrR1ZzUnfUYw-13" value="" style="group" parent="1" vertex="1" connectable="0">
          <mxGeometry x="620" y="700" width="430" height="80" as="geometry" />
        </mxCell>
        <mxCell id="PNHmKyHeMrR1ZzUnfUYw-14" value="" style="rounded=0;whiteSpace=wrap;html=1;fillColor=none;dashed=1;" parent="PNHmKyHeMrR1ZzUnfUYw-13" vertex="1">
          <mxGeometry width="430" height="80" as="geometry" />
        </mxCell>
        <mxCell id="PNHmKyHeMrR1ZzUnfUYw-15" value="&lt;font style=&quot;font-size: 17px&quot;&gt;ES-SQL&lt;/font&gt;" style="shape=process;whiteSpace=wrap;html=1;backgroundOutline=1;fillColor=none;" parent="PNHmKyHeMrR1ZzUnfUYw-13" vertex="1">
          <mxGeometry x="10" y="10" width="120" height="60" as="geometry" />
        </mxCell>
        <mxCell id="PNHmKyHeMrR1ZzUnfUYw-16" value="&lt;font style=&quot;font-size: 17px&quot;&gt;DSL&lt;/font&gt;" style="shape=process;whiteSpace=wrap;html=1;backgroundOutline=1;fillColor=none;" parent="PNHmKyHeMrR1ZzUnfUYw-13" vertex="1">
          <mxGeometry x="160" y="10" width="120" height="60" as="geometry" />
        </mxCell>
        <mxCell id="PNHmKyHeMrR1ZzUnfUYw-17" value="&lt;font style=&quot;font-size: 17px&quot;&gt;Kibana&lt;/font&gt;" style="shape=process;whiteSpace=wrap;html=1;backgroundOutline=1;fillColor=none;" parent="PNHmKyHeMrR1ZzUnfUYw-13" vertex="1">
          <mxGeometry x="300" y="10" width="120" height="60" as="geometry" />
        </mxCell>
        <mxCell id="PNHmKyHeMrR1ZzUnfUYw-18" value="" style="shape=curlyBracket;whiteSpace=wrap;html=1;rounded=1;fillColor=none;rotation=-90;" parent="1" vertex="1">
          <mxGeometry x="820" y="420" width="30" height="500" as="geometry" />
        </mxCell>
        <mxCell id="PNHmKyHeMrR1ZzUnfUYw-19" value="&lt;font style=&quot;font-size: 18px&quot;&gt;Read&lt;/font&gt;" style="text;html=1;strokeColor=#d6b656;fillColor=#fff2cc;align=center;verticalAlign=middle;whiteSpace=wrap;rounded=0;" parent="1" vertex="1">
          <mxGeometry x="1100" y="650" width="80" height="40" as="geometry" />
        </mxCell>
        <mxCell id="PNHmKyHeMrR1ZzUnfUYw-20" value="&lt;span style=&quot;font-family: &amp;#34;microsoft yahei&amp;#34; , &amp;#34;arial&amp;#34; , &amp;#34;helvetica&amp;#34; , sans-serif ; font-size: 14px ; text-align: left ; background-color: rgb(255 , 255 , 255)&quot;&gt;Index Maintain&lt;/span&gt;" style="rounded=1;whiteSpace=wrap;html=1;fillColor=none;" parent="1" vertex="1">
          <mxGeometry x="580" y="430" width="120" height="40" as="geometry" />
        </mxCell>
        <mxCell id="PNHmKyHeMrR1ZzUnfUYw-21" value="" style="edgeStyle=segmentEdgeStyle;endArrow=classic;html=1;exitX=0;exitY=0.5;exitDx=0;exitDy=0;entryX=0.5;entryY=0;entryDx=0;entryDy=0;" parent="1" source="PNHmKyHeMrR1ZzUnfUYw-20" target="PNHmKyHeMrR1ZzUnfUYw-6" edge="1">
          <mxGeometry width="50" height="50" relative="1" as="geometry">
            <mxPoint x="700" y="390" as="sourcePoint" />
            <mxPoint x="750" y="340" as="targetPoint" />
          </mxGeometry>
        </mxCell>
        <mxCell id="PNHmKyHeMrR1ZzUnfUYw-22" value="" style="edgeStyle=segmentEdgeStyle;endArrow=classic;html=1;exitX=1;exitY=0.5;exitDx=0;exitDy=0;" parent="1" source="PNHmKyHeMrR1ZzUnfUYw-20" target="PNHmKyHeMrR1ZzUnfUYw-7" edge="1">
          <mxGeometry width="50" height="50" relative="1" as="geometry">
            <mxPoint x="850" y="440" as="sourcePoint" />
            <mxPoint x="900" y="390" as="targetPoint" />
          </mxGeometry>
        </mxCell>
        <mxCell id="PNHmKyHeMrR1ZzUnfUYw-23" value="" style="edgeStyle=segmentEdgeStyle;endArrow=classic;html=1;exitX=1;exitY=0.5;exitDx=0;exitDy=0;entryX=0.5;entryY=0;entryDx=0;entryDy=0;" parent="1" source="PNHmKyHeMrR1ZzUnfUYw-20" target="PNHmKyHeMrR1ZzUnfUYw-9" edge="1">
          <mxGeometry width="50" height="50" relative="1" as="geometry">
            <mxPoint x="920" y="410" as="sourcePoint" />
            <mxPoint x="970" y="360" as="targetPoint" />
          </mxGeometry>
        </mxCell>
        <mxCell id="PNHmKyHeMrR1ZzUnfUYw-24" value="&lt;font style=&quot;font-size: 14px&quot;&gt;RollOver&lt;/font&gt;" style="text;html=1;strokeColor=#b85450;fillColor=#f8cecc;align=center;verticalAlign=middle;whiteSpace=wrap;rounded=0;" parent="1" vertex="1">
          <mxGeometry x="710" y="410" width="75" height="30" as="geometry" />
        </mxCell>
        <mxCell id="PNHmKyHeMrR1ZzUnfUYw-25" value="&lt;font style=&quot;font-size: 14px&quot;&gt;Delete&lt;/font&gt;" style="text;html=1;strokeColor=#b85450;fillColor=#f8cecc;align=center;verticalAlign=middle;whiteSpace=wrap;rounded=0;" parent="1" vertex="1">
          <mxGeometry x="1200" y="410" width="75" height="30" as="geometry" />
        </mxCell>
        <mxCell id="PNHmKyHeMrR1ZzUnfUYw-5" value="" style="rounded=0;whiteSpace=wrap;html=1;fillColor=none;dashed=1;" parent="1" vertex="1">
          <mxGeometry x="360" y="500" width="1010" height="140" as="geometry" />
        </mxCell>
        <mxCell id="PNHmKyHeMrR1ZzUnfUYw-6" value="&lt;font style=&quot;font-size: 20px&quot;&gt;Index01-2020-05-10&lt;br&gt;&lt;b&gt;&lt;font color=&quot;#ff3333&quot;&gt;Index01$&lt;/font&gt;&lt;/b&gt;&lt;/font&gt;" style="rounded=1;whiteSpace=wrap;html=1;" parent="1" vertex="1">
          <mxGeometry x="370" y="520" width="250" height="100" as="geometry" />
        </mxCell>
        <mxCell id="PNHmKyHeMrR1ZzUnfUYw-7" value="&lt;font style=&quot;font-size: 20px&quot;&gt;Index01-2020-04-10&lt;br&gt;Index01&lt;br&gt;&lt;/font&gt;" style="rounded=1;whiteSpace=wrap;html=1;" parent="1" vertex="1">
          <mxGeometry x="670" y="520" width="250" height="100" as="geometry" />
        </mxCell>
        <mxCell id="PNHmKyHeMrR1ZzUnfUYw-8" value="&lt;font style=&quot;font-size: 20px&quot;&gt;Index01-2020-03-10&lt;br&gt;Index01&lt;br&gt;&lt;/font&gt;" style="rounded=1;whiteSpace=wrap;html=1;" parent="1" vertex="1">
          <mxGeometry x="970" y="520" width="250" height="100" as="geometry" />
        </mxCell>
        <mxCell id="PNHmKyHeMrR1ZzUnfUYw-9" value="&lt;span style=&quot;font-size: 20px&quot;&gt;..........&lt;/span&gt;" style="rounded=1;whiteSpace=wrap;html=1;" parent="1" vertex="1">
          <mxGeometry x="1270" y="520" width="90" height="100" as="geometry" />
        </mxCell>
        <mxCell id="PNHmKyHeMrR1ZzUnfUYw-10" value="" style="endArrow=none;html=1;exitX=1;exitY=0.5;exitDx=0;exitDy=0;entryX=0;entryY=0.5;entryDx=0;entryDy=0;" parent="1" source="PNHmKyHeMrR1ZzUnfUYw-6" target="PNHmKyHeMrR1ZzUnfUYw-7" edge="1">
          <mxGeometry width="50" height="50" relative="1" as="geometry">
            <mxPoint x="660" y="670" as="sourcePoint" />
            <mxPoint x="710" y="620" as="targetPoint" />
          </mxGeometry>
        </mxCell>
        <mxCell id="PNHmKyHeMrR1ZzUnfUYw-11" value="" style="endArrow=none;html=1;exitX=1;exitY=0.5;exitDx=0;exitDy=0;" parent="1" source="PNHmKyHeMrR1ZzUnfUYw-7" target="PNHmKyHeMrR1ZzUnfUYw-8" edge="1">
          <mxGeometry width="50" height="50" relative="1" as="geometry">
            <mxPoint x="1020" y="640" as="sourcePoint" />
            <mxPoint x="1070" y="590" as="targetPoint" />
          </mxGeometry>
        </mxCell>
        <mxCell id="PNHmKyHeMrR1ZzUnfUYw-12" value="" style="endArrow=none;html=1;exitX=1;exitY=0.5;exitDx=0;exitDy=0;entryX=0;entryY=0.5;entryDx=0;entryDy=0;" parent="1" source="PNHmKyHeMrR1ZzUnfUYw-8" target="PNHmKyHeMrR1ZzUnfUYw-9" edge="1">
          <mxGeometry width="50" height="50" relative="1" as="geometry">
            <mxPoint x="1220" y="660" as="sourcePoint" />
            <mxPoint x="1270" y="610" as="targetPoint" />
          </mxGeometry>
        </mxCell>
      </root>
    </mxGraphModel>
  </diagram>
</mxfile>
